<?xml version="1.0" encoding="UTF-8" standalone="no"?>
<!-- Created with Inkscape (http://www.inkscape.org/) -->

<svg
   width="24"
   height="24"
   viewBox="0 0 6.3499999 6.35"
   version="1.1"
   id="svg1"
   inkscape:version="1.4 (86a8ad7, 2024-10-11)"
   sodipodi:docname="cpuview_24.svg"
   inkscape:export-filename="..\png_24\cpuview_s.png"
   inkscape:export-xdpi="96"
   inkscape:export-ydpi="96"
   xmlns:inkscape="http://www.inkscape.org/namespaces/inkscape"
   xmlns:sodipodi="http://sodipodi.sourceforge.net/DTD/sodipodi-0.dtd"
   xmlns="http://www.w3.org/2000/svg"
   xmlns:svg="http://www.w3.org/2000/svg"
   xmlns:rdf="http://www.w3.org/1999/02/22-rdf-syntax-ns#"
   xmlns:cc="http://creativecommons.org/ns#">
  <sodipodi:namedview
     id="namedview1"
     pagecolor="#ffffff"
     bordercolor="#000000"
     borderopacity="0.25"
     inkscape:showpageshadow="2"
     inkscape:pageopacity="0.0"
     inkscape:pagecheckerboard="0"
     inkscape:deskcolor="#d1d1d1"
     inkscape:document-units="mm"
     showgrid="true"
     inkscape:zoom="16"
     inkscape:cx="5.1875"
     inkscape:cy="11.6875"
     inkscape:window-width="1920"
     inkscape:window-height="1001"
     inkscape:window-x="-9"
     inkscape:window-y="-9"
     inkscape:window-maximized="1"
     inkscape:current-layer="layer3"
     showguides="false">
    <inkscape:grid
       id="grid1"
       units="px"
       originx="0"
       originy="0"
       spacingx="0.26458333"
       spacingy="0.26458333"
       empcolor="#0099e5"
       empopacity="0.30196078"
       color="#0099e5"
       opacity="0.14901961"
       empspacing="1"
       dotted="false"
       gridanglex="30"
       gridanglez="30"
       visible="true" />
  </sodipodi:namedview>
  <defs
     id="defs1" />
  <g
     inkscape:label="paper"
     inkscape:groupmode="layer"
     id="layer1"
     sodipodi:insensitive="true">
    <path
       id="rect2"
       style="fill:#0055d4;fill-rule:evenodd;stroke:none;stroke-width:0.186293;stroke-linecap:round;paint-order:stroke fill markers"
       d="m 0.79375,0 -3e-8,6.3499997 4.23333333,3e-7 0.5291665,-3e-7 2e-7,-5.027083 L 4.2396561,0 Z m 0.2645833,0.26458333 3.0427084,-10e-9 1.190625,1.19062498 v 4.6302084 l -4.2333334,-4e-7 z"
       sodipodi:nodetypes="ccccccccccccc" />
    <path
       id="rect3"
       style="fill:#0055d4;fill-rule:evenodd;stroke-width:0.305157;stroke-linecap:round;paint-order:stroke fill markers"
       d="m 3.9687499,0.2645833 -2e-7,1.3229165 H 5.2916665 V 1.3229166 H 4.2333332 V 0.26458327 Z"
       sodipodi:nodetypes="ccccccc" />
  </g>
  <g
     inkscape:groupmode="layer"
     id="layer2"
     inkscape:label="strings"
     style="display:inline">
    <path
       id="rect4"
       style="fill:#0055d4;fill-rule:evenodd;stroke-width:0.187089;stroke-linecap:round;paint-order:stroke fill markers"
       d="M 1.3229166,1.0583332 H 3.1749998 V 1.5874999 H 1.3229166 Z" />
    <path
       id="rect4-3"
       style="fill:#0055d4;fill-rule:evenodd;stroke-width:0.132292;stroke-linecap:round;paint-order:stroke fill markers"
       d="M 1.3229166,1.8520833 H 3.1749999 V 2.1166666 H 1.3229166 Z" />
    <path
       id="rect4-3-0"
       style="display:inline;fill:#0055d4;fill-rule:evenodd;stroke-width:0.18709;stroke-linecap:round;paint-order:stroke fill markers"
       d="M 1.3229166,2.3812499 H 5.0270832 V 2.6458332 H 1.3229166 Z" />
    <path
       id="path7"
       style="display:none;fill:#0055d4;fill-rule:evenodd;stroke-width:0.100004;stroke-linecap:round;paint-order:stroke fill markers"
       d="M 3.9687499,2.3812499 H 5.0270832 V 2.6458332 H 3.9687499 Z"
       inkscape:label="rect4-3-0_short" />
    <path
       id="rect4-3-0-8"
       style="display:inline;fill:#0055d4;fill-rule:evenodd;stroke-width:0.18709;stroke-linecap:round;paint-order:stroke fill markers"
       d="M 1.3229166,2.9104167 H 5.0270832 V 3.175 H 1.3229166 Z" />
    <path
       id="path8"
       style="display:none;fill:#0055d4;fill-rule:evenodd;stroke-width:0.100004;stroke-linecap:round;paint-order:stroke fill markers"
       d="M 3.9687499,2.9104167 H 5.0270832 V 3.175 H 3.9687499 Z"
       inkscape:label="rect4-3-0-8_short" />
    <path
       id="rect4-3-0-4"
       style="fill:#0055d4;fill-rule:evenodd;stroke-width:0.100004;stroke-linecap:round;paint-order:stroke fill markers"
       d="M 3.96875,3.4395833 H 5.0270832 V 3.7041666 H 3.96875 Z" />
    <path
       id="rect4-3-0-40"
       style="fill:#0055d4;fill-rule:evenodd;stroke-width:0.100004;stroke-linecap:round;paint-order:stroke fill markers"
       d="M 3.96875,3.96875 H 5.0270832 V 4.2333333 H 3.96875 Z" />
    <path
       id="rect4-3-0-5"
       style="fill:#0055d4;fill-rule:evenodd;stroke-width:0.100004;stroke-linecap:round;paint-order:stroke fill markers"
       d="M 3.96875,4.4979167 H 5.0270831 V 4.7625 H 3.96875 Z" />
    <path
       id="rect4-3-0-3"
       style="fill:#0055d4;fill-rule:evenodd;stroke-width:0.100004;stroke-linecap:round;paint-order:stroke fill markers"
       d="M 3.9687498,5.0270831 H 5.0270831 V 5.2916664 H 3.9687498 Z" />
    <path
       id="rect4-3-0-3-4"
       style="display:none;fill:#0055d4;fill-rule:evenodd;stroke-width:0.100004;stroke-linecap:round;paint-order:stroke fill markers"
       d="M 3.7041667,5.2916667 H 4.7625 V 5.55625 H 3.7041667 Z" />
    <path
       id="rect4-3-0-3-8"
       style="display:inline;fill:#0055d4;fill-rule:evenodd;stroke-width:0.100004;stroke-linecap:round;paint-order:stroke fill markers"
       d="M 3.9687498,5.5562501 H 5.0270831 V 5.8208334 H 3.9687498 Z" />
  </g>
  <g
     inkscape:groupmode="layer"
     id="layer3"
     inkscape:label="char"
     style="display:inline">
    <path
       d="m 2.1166667,2.6458333 -1e-7,1.3229165 c 0,-0.1901693 0.2341426,-0.2645831 0.5291666,-0.2645832 C 2.9402464,3.7041665 3.175,3.9302706 3.175,4.2333334 l -10e-8,1.3229164 H 2.9104166 V 4.4979165 c 0,-0.3165394 -0.024805,-0.5291665 -0.3968749,-0.5291666 -0.1881028,-1e-7 -0.3968751,0.1653646 -0.3968751,0.5291666 V 5.5562498 H 1.8520833 V 2.6458333 Z"
       id="text4"
       style="font-weight:bold;font-size:4.5861px;font-family:Arial;-inkscape-font-specification:'Arial Bold';display:none;fill:#0055d4;fill-rule:evenodd;stroke:none;stroke-width:0.0999997;stroke-linecap:round;paint-order:stroke fill markers"
       aria-label="h"
       sodipodi:nodetypes="cccsccscccccc"
       inkscape:label="h"
       sodipodi:insensitive="true" />
    <path
       d="M 2.5135416,5.2916664 C 2.2271341,5.2420924 2.1166667,5.1057005 2.1166667,4.7624997 c 0,-0.1505542 0,-0.2645835 0,-0.2645835 0,-0.3282324 0.0745,-0.5291664 0.3968749,-0.5291666 0.1881028,-1e-7 0.3968751,0.1653646 0.3968751,0.5291666 -10e-8,0.4370559 -10e-8,0.6865356 -10e-8,1.0583335 L 3.175,5.5562495 V 2.645833 H 2.9104166 v 1.2176791 c 0,-0.1053947 -0.2341425,-0.1593457 -0.5291665,-0.1593458 -0.2944132,-10e-8 -0.5291668,0.226104 -0.5291668,0.5291668 0,0 0,0.5291666 0,0.79375 0,0.2148879 0.2645834,0.4593786 0.5291667,0.5291666 0.2130414,0 0.3699459,0 0.5291666,-0.1271901 0,-0.040491 0,-0.4513976 0,-0.5583992 0,0.259912 -0.1952204,0.421006 -0.396875,0.421006 z"
       id="text4-5"
       style="font-weight:bold;font-size:4.5861px;font-family:Arial;-inkscape-font-specification:'Arial Bold';display:none;fill:#0055d4;fill-rule:evenodd;stroke:none;stroke-width:0.0999997;stroke-linecap:round;paint-order:stroke fill markers"
       aria-label="h"
       sodipodi:nodetypes="cccccccccccsscccc"
       inkscape:label="d"
       sodipodi:insensitive="true" />
    <path
       d="M 1.3229166,3.7041665 H 1.5874999 V 3.8403647 C 1.6959984,3.7041665 1.8520833,3.7041665 2.1166666,3.7041665 c 0.102813,0 0.2454425,-0.00668 0.3968751,0.1322918 0.1116578,-0.1615548 0.4244729,-0.1322916 0.6614582,-0.1322918 0.2606294,-3e-7 0.5291666,0.2036988 0.5291666,0.5291666 v 1.3229168 l -0.2645832,-3e-7 -10e-8,-1.0583332 c -10e-8,-0.4897485 -0.1715604,-0.5291666 -0.409313,-0.5291666 -0.1198536,0 -0.384437,0 -0.384437,0.5291666 0,0.2645833 10e-8,1.0583332 10e-8,1.0583332 H 2.38125 l -1e-7,-1.3229165 C 2.3403243,3.9687498 2.1951849,3.9687498 1.9865532,3.9687498 c -0.1344699,0 -0.3990533,0.068293 -0.3990533,0.5291666 0,0.2645833 0,1.0583333 0,1.0583333 l -0.2645833,-1e-7 z"
       id="text5"
       style="font-weight:bold;font-size:4.5861px;font-family:Arial;-inkscape-font-specification:'Arial Bold';display:none;fill:#0055d4;fill-rule:evenodd;stroke-width:0.0939796;stroke-linecap:round;paint-order:stroke fill markers"
       aria-label="m"
       inkscape:label="m"
       sodipodi:nodetypes="ccccccsccscccccccccc"
       sodipodi:insensitive="true" />
    <path
       d="M 2.1166666,5.5562497 H 1.8520832 V 3.7041666 l 0.2645834,-1e-7 v 0.2645833 c 0.107786,-0.1989629 0.3310975,-0.2645833 0.5291666,-0.2645833 0.266789,0 0.4295137,0.1402437 0.5291669,0.2356222 L 3.0484874,4.2333331 C 3.0028854,4.1405561 2.9104166,3.9687498 2.6458332,3.9687498 c -0.2645833,0 -0.5291666,0.3552044 -0.5291666,0.5291666 z"
       id="text6"
       style="font-weight:bold;font-size:4.5861px;font-family:Arial;-inkscape-font-specification:'Arial Bold';display:none;fill:#0055d4;fill-rule:evenodd;stroke-width:0.106981;stroke-linecap:round;paint-order:stroke fill markers"
       aria-label="r"
       inkscape:label="r"
       sodipodi:nodetypes="cccccsccccc"
       sodipodi:insensitive="true" />
    <path
       d="M 1.984375,3.8364583 C 2.1166666,3.7348127 2.2786069,3.7002645 2.5135417,3.7041667 2.934915,3.7227906 3.175,3.8308128 3.175,4.3897459 V 5.55625 H 2.9104166 V 5.4044658 C 2.8752886,5.4472258 2.7242361,5.55625 2.5135417,5.55625 2.1012215,5.55007 1.8520833,5.2916664 1.8520831,4.8899272 c -1e-7,-0.3632845 0.1938391,-0.65861 0.6614586,-0.65861 0.1739338,0 0.3092174,-0.011643 0.3968749,0.1317222 V 4.2313172 C 2.9104166,4.0187331 2.7719788,3.9760433 2.5135417,3.96875 2.3132896,3.97018 2.2988207,3.97318 2.1166666,4.1010417 Z m 0.5291667,0.6583031 c -0.1916475,0.00653 -0.3968751,0.1317219 -0.3968751,0.3951658 0.00469,0.1583096 0.1570963,0.3951656 0.3971222,0.3951656 0.2394298,0 0.3966278,-0.2324606 0.3966278,-0.3951656 0,-0.1913081 -0.1857271,-0.4023607 -0.3968749,-0.3951658 z"
       id="text1"
       style="font-weight:bold;font-size:4.5861px;font-family:Arial;-inkscape-font-specification:'Arial Bold';display:none;fill:#0055d4;fill-rule:evenodd;stroke-width:0.0877145;stroke-linecap:round;paint-order:stroke fill markers"
       aria-label="a"
       inkscape:label="a"
       sodipodi:nodetypes="ccccccssccccccccccc"
       sodipodi:insensitive="true" />
    <path
       d="M 1.8520833,5.0106355 2.1166666,4.9213485 C 2.2556372,5.291666 2.4757104,5.291666 2.6458332,5.291666 2.8801054,5.291666 3.175,5.266765 3.1749999,4.9477083 3.175,4.7975789 2.9864213,4.7625 2.6458332,4.7625 2.1938812,4.7625 1.9205129,4.545797 1.905,4.2333331 1.90642,4.0585105 1.913,3.7041668 2.6473693,3.7041666 c 0.4538589,-1e-7 0.5855083,0.1658716 0.68113,0.3764122 L 3.0931487,4.2333331 C 3.0522734,4.0739011 2.9630352,3.9687498 2.6458332,3.9687498 c -0.2110979,2e-7 -0.4302729,2e-7 -0.4390428,0.1893426 9.133e-4,0.2077697 0.064817,0.3398243 0.4390428,0.3398243 0.553542,0 0.79375,0.1734899 0.79375,0.4497916 0,0.3439581 -0.2148878,0.6085414 -0.79375,0.6085414 -0.6225876,0 -0.7445415,-0.3469668 -0.7937499,-0.5456142 z"
       id="text2"
       style="font-weight:bold;font-size:4.5861px;font-family:Arial;-inkscape-font-specification:'Arial Bold';display:inline;fill:#0055d4;fill-rule:evenodd;stroke:none;stroke-width:0.0965365;stroke-linecap:round;paint-order:stroke fill markers"
       aria-label="s"
       inkscape:label="s"
       sodipodi:nodetypes="ccccccscccccccc"
       sodipodi:insensitive="true" />
    <path
       d="m 2.1166667,2.6458333 -1e-7,1.3229165 c 0,-0.1901693 0.2341426,-0.2645831 0.5291666,-0.2645832 C 2.9402464,3.7041665 3.175,3.9302706 3.175,4.2333334 l -10e-8,1.3229164 H 2.9104166 V 4.4979165 c 0,-0.3165394 -0.024805,-0.5291665 -0.3968749,-0.5291666 -0.1881028,-1e-7 -0.3968751,0.1653646 -0.3968751,0.5291666 V 5.5562498 H 1.8520833 V 2.6458333 Z"
       id="path1"
       style="font-weight:bold;font-size:4.5861px;font-family:Arial;-inkscape-font-specification:'Arial Bold';display:none;fill:#d40000;fill-rule:evenodd;stroke:none;stroke-width:0.0999997;stroke-linecap:round;paint-order:stroke fill markers"
       aria-label="h"
       sodipodi:nodetypes="cccsccscccccc"
       inkscape:label="h_red"
       sodipodi:insensitive="true" />
    <path
       d="M 2.5135416,5.2916664 C 2.2271341,5.2420924 2.1166667,5.1057005 2.1166667,4.7624997 c 0,-0.1505542 0,-0.2645835 0,-0.2645835 0,-0.3282324 0.0745,-0.5291664 0.3968749,-0.5291666 0.1881028,-1e-7 0.3968751,0.1653646 0.3968751,0.5291666 -10e-8,0.4370559 -10e-8,0.6865356 -10e-8,1.0583335 L 3.175,5.5562495 V 2.645833 H 2.9104166 v 1.2176791 c 0,-0.1053947 -0.2341425,-0.1593457 -0.5291665,-0.1593458 -0.2944132,-10e-8 -0.5291668,0.226104 -0.5291668,0.5291668 0,0 0,0.5291666 0,0.79375 0,0.2148879 0.2645834,0.4593786 0.5291667,0.5291666 0.2130414,0 0.3699459,0 0.5291666,-0.1271901 0,-0.040491 0,-0.4513976 0,-0.5583992 0,0.259912 -0.1952204,0.421006 -0.396875,0.421006 z"
       id="path2"
       style="font-weight:bold;font-size:4.5861px;font-family:Arial;-inkscape-font-specification:'Arial Bold';display:none;fill:#d40000;fill-rule:evenodd;stroke:none;stroke-width:0.0999997;stroke-linecap:round;paint-order:stroke fill markers"
       aria-label="h"
       sodipodi:nodetypes="cccccccccccsscccc"
       inkscape:label="d_red"
       sodipodi:insensitive="true" />
    <path
       d="M 1.3229166,3.7041665 H 1.5874999 V 3.8403647 C 1.6959984,3.7041665 1.8520833,3.7041665 2.1166666,3.7041665 c 0.102813,0 0.2454425,-0.00668 0.3968751,0.1322918 0.1116578,-0.1615548 0.4244729,-0.1322916 0.6614582,-0.1322918 0.2606294,-3e-7 0.5291666,0.2036988 0.5291666,0.5291666 v 1.3229168 l -0.2645832,-3e-7 -10e-8,-1.0583332 c -10e-8,-0.4897485 -0.1715604,-0.5291666 -0.409313,-0.5291666 -0.1198536,0 -0.384437,0 -0.384437,0.5291666 0,0.2645833 10e-8,1.0583332 10e-8,1.0583332 H 2.38125 l -1e-7,-1.3229165 C 2.3403243,3.9687498 2.1951849,3.9687498 1.9865532,3.9687498 c -0.1344699,0 -0.3990533,0.068293 -0.3990533,0.5291666 0,0.2645833 0,1.0583333 0,1.0583333 l -0.2645833,-1e-7 z"
       id="path3"
       style="font-weight:bold;font-size:4.5861px;font-family:Arial;-inkscape-font-specification:'Arial Bold';display:none;fill:#d40000;fill-rule:evenodd;stroke-width:0.0939796;stroke-linecap:round;paint-order:stroke fill markers"
       aria-label="m"
       inkscape:label="m_red"
       sodipodi:nodetypes="ccccccsccscccccccccc"
       sodipodi:insensitive="true" />
    <path
       d="M 2.1166666,5.5562497 H 1.8520832 V 3.7041666 l 0.2645834,-1e-7 v 0.2645833 c 0.107786,-0.1989629 0.3310975,-0.2645833 0.5291666,-0.2645833 0.266789,0 0.4295137,0.1402437 0.5291669,0.2356222 L 3.0484874,4.2333331 C 3.0028854,4.1405561 2.9104166,3.9687498 2.6458332,3.9687498 c -0.2645833,0 -0.5291666,0.3552044 -0.5291666,0.5291666 z"
       id="path4"
       style="font-weight:bold;font-size:4.5861px;font-family:Arial;-inkscape-font-specification:'Arial Bold';display:none;fill:#d40000;fill-rule:evenodd;stroke-width:0.106981;stroke-linecap:round;paint-order:stroke fill markers"
       aria-label="r"
       inkscape:label="r_red"
       sodipodi:nodetypes="cccccsccccc"
       sodipodi:insensitive="true" />
    <path
       d="M 1.984375,3.8364583 C 2.1166666,3.7348127 2.2786069,3.7002645 2.5135417,3.7041667 2.934915,3.7227906 3.175,3.8308128 3.175,4.3897459 V 5.55625 H 2.9104166 V 5.4044658 C 2.8752886,5.4472258 2.7242361,5.55625 2.5135417,5.55625 2.1012215,5.55007 1.8520833,5.2916664 1.8520831,4.8899272 c -1e-7,-0.3632845 0.1938391,-0.65861 0.6614586,-0.65861 0.1739338,0 0.3092174,-0.011643 0.3968749,0.1317222 V 4.2313172 C 2.9104166,4.0187331 2.7719788,3.9760433 2.5135417,3.96875 2.3132896,3.97018 2.2988207,3.97318 2.1166666,4.1010417 Z m 0.5291667,0.6583031 c -0.1916475,0.00653 -0.3968751,0.1317219 -0.3968751,0.3951658 0.00469,0.1583096 0.1570963,0.3951656 0.3971222,0.3951656 0.2394298,0 0.3966278,-0.2324606 0.3966278,-0.3951656 0,-0.1913081 -0.1857271,-0.4023607 -0.3968749,-0.3951658 z"
       id="path5"
       style="font-weight:bold;font-size:4.5861px;font-family:Arial;-inkscape-font-specification:'Arial Bold';display:none;fill:#d40000;fill-rule:evenodd;stroke-width:0.0877145;stroke-linecap:round;paint-order:stroke fill markers"
       aria-label="a"
       inkscape:label="a_red"
       sodipodi:nodetypes="ccccccssccccccccccc"
       sodipodi:insensitive="true" />
    <path
       d="M 1.8520833,5.0106355 2.1166666,4.9213485 C 2.2556372,5.291666 2.4757104,5.291666 2.6458332,5.291666 2.8801054,5.291666 3.175,5.266765 3.1749999,4.9477083 3.175,4.7975789 2.9864213,4.7625 2.6458332,4.7625 2.1938812,4.7625 1.9205129,4.545797 1.905,4.2333331 1.90642,4.0585105 1.913,3.7041668 2.6473693,3.7041666 c 0.4538589,-1e-7 0.5855083,0.1658716 0.68113,0.3764122 L 3.0931487,4.2333331 C 3.0522734,4.0739011 2.9630352,3.9687498 2.6458332,3.9687498 c -0.2110979,2e-7 -0.4302729,2e-7 -0.4390428,0.1893426 9.133e-4,0.2077697 0.064817,0.3398243 0.4390428,0.3398243 0.553542,0 0.79375,0.1734899 0.79375,0.4497916 0,0.3439581 -0.2148878,0.6085414 -0.79375,0.6085414 -0.6225876,0 -0.7445415,-0.3469668 -0.7937499,-0.5456142 z"
       id="path6"
       style="font-weight:bold;font-size:4.5861px;font-family:Arial;-inkscape-font-specification:'Arial Bold';display:none;fill:#d40000;fill-rule:evenodd;stroke:none;stroke-width:0.0965365;stroke-linecap:round;paint-order:stroke fill markers"
       aria-label="s"
       inkscape:label="s_red"
       sodipodi:nodetypes="ccccccscccccccc" />
  </g>
  <metadata
     id="metadata1">
    <rdf:RDF>
      <cc:Work
         rdf:about="">
        <cc:license
           rdf:resource="http://artlibre.org/licence/lal" />
      </cc:Work>
      <cc:License
         rdf:about="http://artlibre.org/licence/lal">
        <cc:permits
           rdf:resource="http://creativecommons.org/ns#Reproduction" />
        <cc:permits
           rdf:resource="http://creativecommons.org/ns#Distribution" />
        <cc:permits
           rdf:resource="http://creativecommons.org/ns#DerivativeWorks" />
        <cc:requires
           rdf:resource="http://creativecommons.org/ns#ShareAlike" />
        <cc:requires
           rdf:resource="http://creativecommons.org/ns#Notice" />
        <cc:requires
           rdf:resource="http://creativecommons.org/ns#Attribution" />
      </cc:License>
    </rdf:RDF>
  </metadata>
</svg>
