<?xml version="1.0" encoding="UTF-8" standalone="no"?>
<!-- Created with Inkscape (http://www.inkscape.org/) -->

<svg
   width="36"
   height="36"
   viewBox="0 0 9.5249998 9.5249999"
   version="1.1"
   id="svg1"
   inkscape:version="1.4 (86a8ad7, 2024-10-11)"
   sodipodi:docname="cpuview_36.svg"
   inkscape:export-filename="..\png_36\teditview_150.png"
   inkscape:export-xdpi="96"
   inkscape:export-ydpi="96"
   xmlns:inkscape="http://www.inkscape.org/namespaces/inkscape"
   xmlns:sodipodi="http://sodipodi.sourceforge.net/DTD/sodipodi-0.dtd"
   xmlns="http://www.w3.org/2000/svg"
   xmlns:svg="http://www.w3.org/2000/svg">
  <sodipodi:namedview
     id="namedview1"
     pagecolor="#ffffff"
     bordercolor="#000000"
     borderopacity="0.25"
     inkscape:showpageshadow="2"
     inkscape:pageopacity="0.0"
     inkscape:pagecheckerboard="0"
     inkscape:deskcolor="#d1d1d1"
     inkscape:document-units="px"
     inkscape:zoom="16"
     inkscape:cx="7.75"
     inkscape:cy="15.65625"
     inkscape:window-width="1920"
     inkscape:window-height="1001"
     inkscape:window-x="-9"
     inkscape:window-y="-9"
     inkscape:window-maximized="1"
     inkscape:current-layer="layer2"
     showgrid="true"
     showguides="true">
    <inkscape:grid
       id="grid1"
       units="px"
       originx="0"
       originy="0"
       spacingx="0.26458333"
       spacingy="0.26458333"
       empcolor="#0099e5"
       empopacity="0.30196078"
       color="#0099e5"
       opacity="0.14901961"
       empspacing="1"
       dotted="false"
       gridanglex="30"
       gridanglez="30"
       visible="true" />
    <sodipodi:guide
       position="-0.52916664,1.322917"
       orientation="0,-1"
       id="guide5"
       inkscape:locked="false" />
    <sodipodi:guide
       position="5.8208331,10.054166"
       orientation="1,0"
       id="guide10"
       inkscape:locked="false" />
    <sodipodi:guide
       position="4.7624998,3.1750002"
       orientation="1,0"
       id="guide12"
       inkscape:locked="false" />
    <sodipodi:guide
       position="2.6458332,-2.1166661"
       orientation="1,0"
       id="guide1"
       inkscape:locked="false" />
    <sodipodi:guide
       position="-0.26458332,4.2333335"
       orientation="0,-1"
       id="guide2"
       inkscape:locked="false" />
  </sodipodi:namedview>
  <defs
     id="defs1" />
  <g
     inkscape:label="paper"
     inkscape:groupmode="layer"
     id="layer1"
     sodipodi:insensitive="true">
    <path
       id="rect1"
       style="fill:#0055d4;fill-rule:evenodd;stroke-width:0.133224;stroke-linecap:round;paint-order:stroke fill markers"
       d="m 1.0583333,0 v 9.5249999 h 7.4083332 l -2e-7,-6.8791667 L 5.8208331,0 Z m 0.5291664,0.51923824 3.96875,0.009928 2.3812499,2.38124976 3e-7,6.0854164 H 1.5875 Z"
       sodipodi:nodetypes="cccccccccccc" />
    <path
       id="rect5"
       style="fill:#0055d4;fill-rule:evenodd;stroke-width:0.132292;stroke-linecap:round;paint-order:stroke fill markers"
       d="M 5.2916666,0.39687499 V 2.6458333 2.778125 3.175 H 7.9374999 V 2.6458333 H 5.8208332 V 0.39687499 Z" />
  </g>
  <g
     inkscape:groupmode="layer"
     id="layer3"
     inkscape:label="strings"
     style="display:inline">
    <path
       id="rect6"
       style="fill:#0055d4;fill-rule:evenodd;stroke-width:0.166006;stroke-linecap:round;paint-order:stroke fill markers"
       d="m 1.8520832,1.5875 h 3.175 v 0.7937501 h -3.175 z" />
    <path
       id="rect7"
       style="fill:#0055d4;fill-rule:evenodd;stroke-width:0.0935446;stroke-linecap:round;paint-order:stroke fill markers"
       d="m 1.8520832,3.1749999 h 3.175 v 0.2645833 h -3.175 z" />
    <path
       id="rect7-3-3-2-1"
       style="display:inline;fill:#0055d4;fill-rule:evenodd;stroke-width:0.12666;stroke-linecap:round;paint-order:stroke fill markers"
       d="M 1.8520832,3.7041666 H 7.6729166 V 3.9687499 H 1.8520832 Z"
       inkscape:label="path3" />
    <path
       id="path3"
       style="display:none;fill:#0055d4;fill-rule:evenodd;stroke-width:0.0714459;stroke-linecap:round;paint-order:stroke fill markers"
       d="M 5.8208331,3.7041666 H 7.6729166 V 3.9687499 H 5.8208331 Z"
       inkscape:label="path3_short" />
    <path
       id="rect7-3-3-2-9-5"
       style="fill:#0055d4;fill-rule:evenodd;stroke-width:0.0714459;stroke-linecap:round;paint-order:stroke fill markers"
       d="M 5.8208331,6.6145832 H 7.6729166 V 6.8791665 H 5.8208331 Z" />
    <path
       id="rect7-3-3-2-9-7-0"
       style="display:inline;fill:#0055d4;fill-rule:evenodd;stroke-width:0.12666;stroke-linecap:round;paint-order:stroke fill markers"
       d="M 1.8520832,4.2333333 H 7.6729163 V 4.4979166 H 1.8520832 Z"
       inkscape:label="path2" />
    <path
       id="path2"
       style="display:none;fill:#0055d4;fill-rule:evenodd;stroke-width:0.0714459;stroke-linecap:round;paint-order:stroke fill markers"
       d="M 5.8208331,4.2333333 H 7.6729163 V 4.4979166 H 5.8208331 Z"
       inkscape:label="path2_short" />
    <path
       id="rect7-3-3-2-9-7-4"
       style="fill:#0055d4;fill-rule:evenodd;stroke-width:0.0714459;stroke-linecap:round;paint-order:stroke fill markers"
       d="M 5.8208331,5.0270833 H 7.6729165 V 5.2916666 H 5.8208331 Z" />
    <path
       id="rect7-3-3-2-9-7-2"
       style="fill:#0055d4;fill-rule:evenodd;stroke-width:0.0714459;stroke-linecap:round;paint-order:stroke fill markers"
       d="M 5.8208331,5.5562499 H 7.6729166 V 5.8208332 H 5.8208331 Z" />
    <path
       id="rect7-3-3-2-9-7-1"
       style="fill:#0055d4;fill-rule:evenodd;stroke-width:0.0714459;stroke-linecap:round;paint-order:stroke fill markers"
       d="M 5.8208331,6.0854166 H 7.6729166 V 6.3499999 H 5.8208331 Z" />
    <path
       id="rect7-2"
       style="fill:#0055d4;fill-rule:evenodd;stroke-width:0.0935446;stroke-linecap:round;paint-order:stroke fill markers"
       d="M 1.8520833,2.6458332 H 5.0270831 V 2.9104165 H 1.8520833 Z" />
    <path
       id="rect7-3-3-2-9-5-9"
       style="fill:#0055d4;fill-rule:evenodd;stroke-width:0.0714459;stroke-linecap:round;paint-order:stroke fill markers"
       d="M 5.8208331,7.4083332 H 7.6729165 V 7.6729165 H 5.8208331 Z" />
    <path
       id="rect7-3-3-2-9-5-5"
       style="fill:#0055d4;fill-rule:evenodd;stroke-width:0.0714458;stroke-linecap:round;paint-order:stroke fill markers"
       d="M 5.8208331,7.9374999 H 7.6729162 V 8.2020832 H 5.8208331 Z" />
  </g>
  <g
     inkscape:groupmode="layer"
     id="layer2"
     inkscape:label="char"
     style="display:inline">
    <path
       d="m 3.175,3.7041662 v 1.8520834 c 0,0 0.226316,-0.2645835 0.5291665,-0.2645833 0.8560586,1e-7 1.0627521,0.3968748 1.0627521,1.0583331 l 2e-7,1.8520835 H 4.2333333 V 6.614583 c 0,-0.5291668 0.09095,-0.79375 -0.5291667,-0.7937501 -0.2813242,0 -0.5291668,0.3720706 -0.5291666,0.529167 v 1.852083 H 2.6458333 l 0.00884,-4.4979166 z"
       id="text7"
       style="font-weight:bold;font-size:4.5861px;font-family:Arial;-inkscape-font-specification:'Arial Bold';display:none;fill:#0055d4;fill-rule:evenodd;stroke-width:0.157043;stroke-linecap:round;paint-order:stroke fill markers"
       inkscape:label="h"
       aria-label="h"
       sodipodi:nodetypes="ccccccscccccc"
       sodipodi:insensitive="true" />
    <path
       d="m 4.237752,3.7041662 c 0,0 1.262e-4,1.4552087 0,1.8520834 C 4.169215,5.4201497 4.0403748,5.2916666 3.7085855,5.2916663 c -0.79375,0 -1.0583334,0.6821287 -1.0627521,1.0583331 0,0 0.00442,0.5291669 -10e-8,0.7937502 0.00442,0.4844277 0.00442,1.0583332 1.0627522,1.0583333 0.1421239,-0.023216 0.393332,-1e-7 0.5291667,-0.2645834 V 7.1437496 c 0,0 0,0.5291666 -0.5291667,0.5291666 -0.3867904,0 -0.5333005,-0.264583 -0.5291666,-0.5291666 l -2e-7,-0.7937497 c -10e-8,-0.2295043 0.1591895,-0.5291669 0.5291667,-0.529167 0.3970794,3e-7 0.5291668,0.3100589 0.5291666,0.529167 v 0.7937497 1.0583333 h 0.5291667 l -0.00884,-4.4979166 z"
       id="path4"
       style="font-weight:bold;font-size:4.5861px;font-family:Arial;-inkscape-font-specification:'Arial Bold';display:none;fill:#0055d4;fill-rule:evenodd;stroke-width:0.157043;stroke-linecap:round;paint-order:stroke fill markers"
       inkscape:label="d"
       aria-label="h"
       sodipodi:nodetypes="ccccccccccsccccccc"
       sodipodi:insensitive="true" />
    <path
       d="m 2.1220638,5.5562504 0.5237695,-3e-7 -10e-8,0.2645831 c 0.07663,-0.1984375 0.2645833,-0.2645833 0.5291666,-0.2645833 0.244879,3e-7 0.567366,0.060904 0.6614585,0.2645833 0.1322915,-0.1942677 0.1772269,-0.2645833 0.6614582,-0.2645833 0.4092773,0 0.7937499,0.3645539 0.7937499,0.9915788 v 1.6542547 l -0.5291666,-3e-7 V 6.6145832 c 0,-0.193928 -0.057559,-0.5291667 -0.3968749,-0.5291667 -0.2523884,0 -0.3968749,0.1432185 -0.396875,0.5291669 l -1e-7,1.5874997 H 3.4395832 V 6.6145832 c 0,-0.3923655 -0.1526443,-0.5291665 -0.3968749,-0.5291665 -0.2442309,0 -0.3968751,0.1326672 -0.3968751,0.5291665 v 1.5874999 l -0.5291666,1e-7 z"
       id="text8"
       style="font-weight:bold;font-size:4.5861px;font-family:Arial;-inkscape-font-specification:'Arial Bold';display:none;fill:#0055d4;fill-rule:evenodd;stroke-width:0.131467;stroke-linecap:round;paint-order:stroke fill markers"
       aria-label="m"
       sodipodi:nodetypes="cccccssccsssccsssccc"
       inkscape:label="m"
       sodipodi:insensitive="true" />
    <path
       d="M 3.175,8.2020832 H 2.6458333 V 5.2916664 l 0.5291667,2e-7 -10e-8,0.2645831 C 3.3154679,5.3530955 3.514945,5.2916664 3.7041666,5.2916664 c 0.7126069,0 0.7937499,0.2041299 1.0583333,0.5291666 L 4.2333333,6.0854163 C 4.1692674,5.931182 4.0806801,5.8208332 3.7041666,5.8208329 3.4395832,5.8208328 3.2575457,6.0854163 3.175,6.3499999 Z"
       id="text9"
       style="font-weight:bold;font-size:4.5861px;font-family:Arial;-inkscape-font-specification:'Arial Bold';display:none;fill:#0055d4;fill-rule:evenodd;stroke-width:0.16174;stroke-linecap:round;paint-order:stroke fill markers"
       aria-label="r"
       sodipodi:nodetypes="cccccsccscc"
       inkscape:label="r"
       sodipodi:insensitive="true" />
    <path
       d="m 2.6458332,7.3446894 c 0,0 0.371631,-0.088802 0.5291666,-0.1127457 0.094271,0.268513 0.2307945,0.4409731 0.5291668,0.4409728 0.3510113,-3e-7 0.5291665,-0.1481045 0.5291665,-0.4060074 0,-0.3877428 -0.4941299,-0.3468973 -0.7937499,-0.3877428 -0.207405,0 -0.7930956,-0.195677 -0.79375,-0.79375 -2.285e-4,-0.208891 0.142878,-0.7937501 1.0583333,-0.7937499 0.4183675,10e-8 0.79375,0.1089548 0.9632487,0.5291668 L 4.2416014,6.0854166 C 4.1217121,5.820833 3.91104,5.820833 3.7041665,5.820833 c -0.2211711,0 -0.5291667,-0.047542 -0.5291667,0.2645833 0,0.1994667 0.305509,0.2645833 0.5291667,0.2645833 0.7499011,0.078494 1.0583333,0.2645834 1.0583332,0.9186528 0,0.293607 -0.1394675,0.9334306 -1.0583331,0.9334306 -0.3824913,0 -0.8650373,-0.1295216 -1.0583334,-0.8573936 z"
       id="text10"
       style="font-weight:bold;font-size:4.5861px;font-family:Arial;-inkscape-font-specification:'Arial Bold';display:none;fill:#0055d4;fill-rule:evenodd;stroke-width:0.139735;stroke-linecap:round;paint-order:stroke fill markers"
       aria-label="s"
       inkscape:label="s"
       sodipodi:nodetypes="ccsccsscccscssc"
       sodipodi:insensitive="true" />
    <path
       d="M 3.175,5.9531249 3.0427083,5.4239582 C 3.4395832,5.2916663 3.5842772,5.2916664 3.9687498,5.2916664 c 0.5291667,0 0.79375,0.2232422 0.7937501,1.0583333 V 8.2020829 H 4.2333333 v -0.264583 c -0.1153606,0.1851813 -0.1888391,0.264583 -0.5291668,0.264583 -0.5744937,-1e-7 -1.0583333,-0.4800185 -1.0583333,-1.0583333 0,-0.6971282 0.4082063,-1.0583333 1.0583333,-1.0583333 0.2645833,0 0.3937794,0.030336 0.5291666,0.1330366 0,-0.4327599 -0.078082,-0.3976199 -0.5291666,-0.3976199 -0.1822591,0 -0.3051289,0.050906 -0.5291665,0.1322919 z M 3.7041665,6.614583 c -0.3123763,0 -0.5291667,0.1267528 -0.5291667,0.5291666 0,0.4272184 0.3163055,0.5291666 0.5291667,0.5291666 0.2645833,0 0.5291666,-0.1193932 0.5291666,-0.5291666 0,-0.2645833 -0.076422,-0.5291666 -0.5291666,-0.5291666 z"
       id="text12"
       style="font-weight:bold;font-size:4.5861px;font-family:Arial;-inkscape-font-specification:'Arial Bold';display:none;fill:#0055d4;fill-rule:evenodd;stroke-width:0.139385;stroke-linecap:round;paint-order:stroke fill markers"
       aria-label="a"
       inkscape:label="a"
       sodipodi:insensitive="true"
       sodipodi:nodetypes="cccccccssccccccccc" />
    <path
       d="M 4.3040874,7.4083329 4.7624998,7.6729162 C 4.4979165,8.0153912 4.2949734,8.2020828 3.7041665,8.2020829 3.3102365,8.2020829 3.058962,8.043889 2.8698185,7.7275014 2.7204949,7.4740417 2.6458332,7.1541581 2.6458332,6.7678505 2.6458332,6.3063791 2.74396,5.9454176 2.9402138,5.684966 3.1364679,5.4227662 3.404097,5.2916664 3.7041665,5.2916664 c 0.3370448,0 0.6443935,0.14962 0.8392252,0.4240558 0.1948318,0.2726876 0.2276407,0.8634241 0.2191081,1.4280274 l -1.5875,0 c 0,0.2645833 0.1819011,0.5291666 0.5291667,0.5291666 0.3953572,0 0.4729218,-0.088188 0.5999209,-0.2645833 z M 4.2333331,6.614583 c 0,-0.4481381 -0.076895,-0.79375 -0.5291666,-0.79375 -0.3613216,0 -0.5291667,0.3828189 -0.5291667,0.79375 z"
       id="text1"
       style="font-weight:bold;font-size:4.5861px;font-family:Arial;-inkscape-font-specification:'Arial Bold';fill:#0055d4;fill-rule:evenodd;stroke-width:0.139718;stroke-linecap:round;paint-order:stroke fill markers"
       aria-label="e"
       inkscape:label="e"
       sodipodi:nodetypes="ccscscscccsccscc" />
    <path
       d="M 3.175,5.9531249 3.0427083,5.4239582 C 3.4395832,5.2916663 3.5842772,5.2916664 3.9687498,5.2916664 c 0.5291667,0 0.79375,0.2232422 0.7937501,1.0583333 V 8.2020829 H 4.2333333 v -0.264583 c -0.1153606,0.1851813 -0.1888391,0.264583 -0.5291668,0.264583 -0.5744937,-1e-7 -1.0583333,-0.4800185 -1.0583333,-1.0583333 0,-0.6971282 0.4082063,-1.0583333 1.0583333,-1.0583333 0.2645833,0 0.3937794,0.030336 0.5291666,0.1330366 0,-0.4327599 -0.078082,-0.3976199 -0.5291666,-0.3976199 -0.1822591,0 -0.3051289,0.050906 -0.5291665,0.1322919 z M 3.7041665,6.614583 c -0.3123763,0 -0.5291667,0.1267528 -0.5291667,0.5291666 0,0.4272184 0.3163055,0.5291666 0.5291667,0.5291666 0.2645833,0 0.5291666,-0.1193932 0.5291666,-0.5291666 0,-0.2645833 -0.076422,-0.5291666 -0.5291666,-0.5291666 z"
       id="path1"
       style="font-weight:bold;font-size:4.5861px;font-family:Arial;-inkscape-font-specification:'Arial Bold';display:none;fill:#d40000;fill-rule:evenodd;stroke-width:0.139385;stroke-linecap:round;paint-order:stroke fill markers"
       aria-label="a"
       inkscape:label="a_red"
       sodipodi:nodetypes="cccccccssccccccccc"
       sodipodi:insensitive="true" />
    <path
       d="m 2.6458332,7.3446894 c 0,0 0.371631,-0.088802 0.5291666,-0.1127457 0.094271,0.268513 0.2307945,0.4409731 0.5291668,0.4409728 0.3510113,-3e-7 0.5291665,-0.1481045 0.5291665,-0.4060074 0,-0.3877428 -0.4941299,-0.3468973 -0.7937499,-0.3877428 -0.207405,0 -0.7930956,-0.195677 -0.79375,-0.79375 -2.285e-4,-0.208891 0.142878,-0.7937501 1.0583333,-0.7937499 0.4183675,10e-8 0.79375,0.1089548 0.9632487,0.5291668 L 4.2416014,6.0854166 C 4.1217121,5.820833 3.91104,5.820833 3.7041665,5.820833 c -0.2211711,0 -0.5291667,-0.047542 -0.5291667,0.2645833 0,0.1994667 0.305509,0.2645833 0.5291667,0.2645833 0.7499011,0.078494 1.0583333,0.2645834 1.0583332,0.9186528 0,0.293607 -0.1394675,0.9334306 -1.0583331,0.9334306 -0.3824913,0 -0.8650373,-0.1295216 -1.0583334,-0.8573936 z"
       id="path5"
       style="font-weight:bold;font-size:4.5861px;font-family:Arial;-inkscape-font-specification:'Arial Bold';display:none;fill:#d40000;fill-rule:evenodd;stroke-width:0.139735;stroke-linecap:round;paint-order:stroke fill markers"
       aria-label="s"
       inkscape:label="s_red"
       sodipodi:nodetypes="ccsccsscccscssc"
       sodipodi:insensitive="true" />
    <path
       d="M 3.175,8.2020832 H 2.6458333 V 5.2916664 l 0.5291667,2e-7 -10e-8,0.2645831 C 3.3154679,5.3530955 3.514945,5.2916664 3.7041666,5.2916664 c 0.7126069,0 0.7937499,0.2041299 1.0583333,0.5291666 L 4.2333333,6.0854163 C 4.1692674,5.931182 4.0806801,5.8208332 3.7041666,5.8208329 3.4395832,5.8208328 3.2575457,6.0854163 3.175,6.3499999 Z"
       id="path6"
       style="font-weight:bold;font-size:4.5861px;font-family:Arial;-inkscape-font-specification:'Arial Bold';display:none;fill:#d40000;fill-rule:evenodd;stroke-width:0.16174;stroke-linecap:round;paint-order:stroke fill markers"
       aria-label="r"
       sodipodi:nodetypes="cccccsccscc"
       inkscape:label="r_red"
       sodipodi:insensitive="true" />
    <path
       d="m 2.1220638,5.5562504 0.5237695,-3e-7 -10e-8,0.2645831 c 0.07663,-0.1984375 0.2645833,-0.2645833 0.5291666,-0.2645833 0.244879,3e-7 0.567366,0.060904 0.6614585,0.2645833 0.1322915,-0.1942677 0.1772269,-0.2645833 0.6614582,-0.2645833 0.4092773,0 0.7937499,0.3645539 0.7937499,0.9915788 v 1.6542547 l -0.5291666,-3e-7 V 6.6145832 c 0,-0.193928 -0.057559,-0.5291667 -0.3968749,-0.5291667 -0.2523884,0 -0.3968749,0.1432185 -0.396875,0.5291669 l -1e-7,1.5874997 H 3.4395832 V 6.6145832 c 0,-0.3923655 -0.1526443,-0.5291665 -0.3968749,-0.5291665 -0.2442309,0 -0.3968751,0.1326672 -0.3968751,0.5291665 v 1.5874999 l -0.5291666,1e-7 z"
       id="path7"
       style="font-weight:bold;font-size:4.5861px;font-family:Arial;-inkscape-font-specification:'Arial Bold';display:none;fill:#d40000;fill-rule:evenodd;stroke-width:0.131467;stroke-linecap:round;paint-order:stroke fill markers"
       aria-label="m"
       sodipodi:nodetypes="cccccssccsssccsssccc"
       inkscape:label="m_red"
       sodipodi:insensitive="true" />
    <path
       d="m 4.237752,3.7041662 c 0,0 1.262e-4,1.4552087 0,1.8520834 C 4.169215,5.4201497 4.0403748,5.2916666 3.7085855,5.2916663 c -0.79375,0 -1.0583334,0.6821287 -1.0627521,1.0583331 0,0 0.00442,0.5291669 -10e-8,0.7937502 0.00442,0.4844277 0.00442,1.0583332 1.0627522,1.0583333 0.1421239,-0.023216 0.393332,-1e-7 0.5291667,-0.2645834 V 7.1437496 c 0,0 0,0.5291666 -0.5291667,0.5291666 -0.3867904,0 -0.5333005,-0.264583 -0.5291666,-0.5291666 l -2e-7,-0.7937497 c -10e-8,-0.2295043 0.1591895,-0.5291669 0.5291667,-0.529167 0.3970794,3e-7 0.5291668,0.3100589 0.5291666,0.529167 v 0.7937497 1.0583333 h 0.5291667 l -0.00884,-4.4979166 z"
       id="path8"
       style="font-weight:bold;font-size:4.5861px;font-family:Arial;-inkscape-font-specification:'Arial Bold';display:none;fill:#d40000;fill-rule:evenodd;stroke-width:0.157043;stroke-linecap:round;paint-order:stroke fill markers"
       inkscape:label="d_red"
       aria-label="h"
       sodipodi:nodetypes="ccccccccccsccccccc"
       sodipodi:insensitive="true" />
    <path
       d="m 3.175,3.7041662 v 1.8520834 c 0,0 0.226316,-0.2645835 0.5291665,-0.2645833 0.8560586,1e-7 1.0627521,0.3968748 1.0627521,1.0583331 l 2e-7,1.8520835 H 4.2333333 V 6.614583 c 0,-0.5291668 0.09095,-0.79375 -0.5291667,-0.7937501 -0.2813242,0 -0.5291668,0.3720706 -0.5291666,0.529167 v 1.852083 H 2.6458333 l 0.00884,-4.4979166 z"
       id="path9"
       style="font-weight:bold;font-size:4.5861px;font-family:Arial;-inkscape-font-specification:'Arial Bold';display:none;fill:#d40000;fill-rule:evenodd;stroke-width:0.157043;stroke-linecap:round;paint-order:stroke fill markers"
       inkscape:label="h_red"
       aria-label="h"
       sodipodi:nodetypes="ccccccscccccc"
       sodipodi:insensitive="true" />
  </g>
</svg>
