<?xml version="1.0" encoding="UTF-8" standalone="no"?>
<!-- Created with Inkscape (http://www.inkscape.org/) -->

<svg
   width="24"
   height="24"
   viewBox="0 0 6.3499999 6.35"
   version="1.1"
   id="svg1"
   inkscape:version="1.3.2 (091e20e, 2023-11-25, custom)"
   sodipodi:docname="cpuview_24.svg"
   inkscape:export-filename="..\png_24\cpuview_m_100.png"
   inkscape:export-xdpi="96"
   inkscape:export-ydpi="96"
   xmlns:inkscape="http://www.inkscape.org/namespaces/inkscape"
   xmlns:sodipodi="http://sodipodi.sourceforge.net/DTD/sodipodi-0.dtd"
   xmlns="http://www.w3.org/2000/svg"
   xmlns:svg="http://www.w3.org/2000/svg"
   xmlns:rdf="http://www.w3.org/1999/02/22-rdf-syntax-ns#"
   xmlns:cc="http://creativecommons.org/ns#">
  <sodipodi:namedview
     id="namedview1"
     pagecolor="#ffffff"
     bordercolor="#000000"
     borderopacity="0.25"
     inkscape:showpageshadow="2"
     inkscape:pageopacity="0.0"
     inkscape:pagecheckerboard="0"
     inkscape:deskcolor="#d1d1d1"
     inkscape:document-units="mm"
     showgrid="true"
     inkscape:zoom="23.18721"
     inkscape:cx="7.892282"
     inkscape:cy="22.275211"
     inkscape:window-width="1920"
     inkscape:window-height="1001"
     inkscape:window-x="-9"
     inkscape:window-y="-9"
     inkscape:window-maximized="1"
     inkscape:current-layer="layer3">
    <inkscape:grid
       id="grid1"
       units="px"
       originx="0"
       originy="0"
       spacingx="0.26458333"
       spacingy="0.26458333"
       empcolor="#0099e5"
       empopacity="0.30196078"
       color="#0099e5"
       opacity="0.14901961"
       empspacing="1"
       dotted="false"
       gridanglex="30"
       gridanglez="30"
       visible="true" />
  </sodipodi:namedview>
  <defs
     id="defs1" />
  <g
     inkscape:label="paper"
     inkscape:groupmode="layer"
     id="layer1"
     sodipodi:insensitive="true">
    <path
       id="rect2"
       style="fill:#0055d4;fill-rule:evenodd;stroke:none;stroke-width:0.186293;stroke-linecap:round;paint-order:stroke fill markers"
       d="M 0.79375,0 V 6.3293294 H 1.3229167 V 6.35 H 5.0270833 V 6.3396647 H 5.55625 V 1.3229167 L 4.2396561,0 H 1.3229167 Z m 0.5291667,0.52916667 2.778125,-3e-8 0.9260414,0.92604166 2e-7,4.365625 H 1.3229167 Z"
       sodipodi:nodetypes="ccccccccccccccccc" />
    <path
       id="rect3"
       style="fill:#0055d4;fill-rule:evenodd;stroke-width:0.305157;stroke-linecap:round;paint-order:stroke fill markers"
       d="m 3.7041667,0.5291667 -2e-7,1.3229165 H 5.0270833 V 1.3229165 H 4.2333332 l 1e-7,-0.79374983 z"
       sodipodi:nodetypes="ccccccc" />
  </g>
  <g
     inkscape:groupmode="layer"
     id="layer2"
     inkscape:label="strings">
    <path
       id="rect4"
       style="fill:#0055d4;fill-rule:evenodd;stroke-width:0.187089;stroke-linecap:round;paint-order:stroke fill markers"
       d="M 1.5875,1.0583333 H 3.4395832 V 1.5875 H 1.5875 Z" />
    <path
       id="rect4-3"
       style="fill:#0055d4;fill-rule:evenodd;stroke-width:0.132292;stroke-linecap:round;paint-order:stroke fill markers"
       d="M 1.5875,1.8520833 H 3.4395833 V 2.1166666 H 1.5875 Z" />
    <path
       id="rect4-3-0"
       style="fill:#0055d4;fill-rule:evenodd;stroke-width:0.173212;stroke-linecap:round;paint-order:stroke fill markers"
       d="m 1.5874999,2.3812499 h 3.175 v 0.2645833 h -3.175 z" />
    <path
       id="rect4-3-0-8"
       style="fill:#0055d4;fill-rule:evenodd;stroke-width:0.173212;stroke-linecap:round;paint-order:stroke fill markers"
       d="m 1.5874999,2.9104165 h 3.175 v 0.2645833 h -3.175 z" />
    <path
       id="rect4-3-0-4"
       style="fill:#0055d4;fill-rule:evenodd;stroke-width:0.100004;stroke-linecap:round;paint-order:stroke fill markers"
       d="M 3.7041665,3.4395832 H 4.7624998 V 3.7041665 H 3.7041665 Z" />
    <path
       id="rect4-3-0-40"
       style="fill:#0055d4;fill-rule:evenodd;stroke-width:0.100004;stroke-linecap:round;paint-order:stroke fill markers"
       d="M 3.7041665,3.9687498 H 4.7624998 V 4.2333331 H 3.7041665 Z" />
    <path
       id="rect4-3-0-5"
       style="fill:#0055d4;fill-rule:evenodd;stroke-width:0.100004;stroke-linecap:round;paint-order:stroke fill markers"
       d="M 3.7041665,4.4979164 H 4.7624998 V 4.7624997 H 3.7041665 Z" />
    <path
       id="rect4-3-0-3"
       style="fill:#0055d4;fill-rule:evenodd;stroke-width:0.100004;stroke-linecap:round;paint-order:stroke fill markers"
       d="M 3.7041665,5.0270831 H 4.7624998 V 5.2916664 H 3.7041665 Z" />
    <path
       id="rect4-3-0-3-4"
       style="display:none;fill:#0055d4;fill-rule:evenodd;stroke-width:0.100004;stroke-linecap:round;paint-order:stroke fill markers"
       d="M 3.7041667,5.2916667 H 4.7625 V 5.55625 H 3.7041667 Z" />
  </g>
  <g
     inkscape:groupmode="layer"
     id="layer3"
     inkscape:label="char">
    <path
       d="m 2.1166667,2.38125 -1e-7,1.3229167 c 0.044188,-0.1090101 0.2203127,-0.2645835 0.5291666,-0.2645834 0.4121785,-10e-8 0.79375,0.4355849 0.79375,0.79375 V 5.5562497 H 2.9104166 v -1.058333 c 0,-0.2763765 0.048197,-0.6706853 -0.5291666,-0.5291669 -0.1186499,0 -0.2645834,0.097802 -0.2645834,0.5291669 l 1e-7,1.0583333 H 1.5875 v -3.175 z"
       id="text4"
       style="font-weight:bold;font-size:4.5861px;font-family:Arial;-inkscape-font-specification:'Arial Bold';display:none;fill:#0055d4;fill-rule:evenodd;stroke-width:0.128629;stroke-linecap:round;paint-order:stroke fill markers"
       aria-label="h"
       sodipodi:nodetypes="cccsccscccccc"
       inkscape:label="h" />
    <path
       d="m 2.9104165,2.38125 10e-8,1.3229167 C 2.8662286,3.5951566 2.6901039,3.4395832 2.38125,3.4395833 1.9690715,3.4395832 1.5875,3.8751682 1.5875,4.2333333 v 0.5291664 c 0.050034,0.5291667 0.4084837,0.79375 0.79375,0.79375 C 2.5780923,5.568266 2.9158869,5.4849565 2.9124866,5.287777 2.9104166,5.1677409 2.9104166,4.9375935 2.9104166,4.7624997 2.780192,5.0270831 2.5584624,5.057375 2.38125,5.0270831 2.1166666,4.9818563 2.1250057,4.4979166 2.1250057,4.4979166 2.1166666,4.1106907 2.2379819,3.9102846 2.6458332,3.9687498 c 0.1800384,0.033618 0.2645834,0.097802 0.2645834,0.5291669 0.00302,0.596624 0.00267,0.7958254 0,1.0583333 h 0.5291666 v -3.175 z"
       id="text4-3"
       style="font-weight:bold;font-size:4.5861px;font-family:Arial;-inkscape-font-specification:'Arial Bold';display:none;fill:#0055d4;fill-rule:evenodd;stroke-width:0.128629;stroke-linecap:round;paint-order:stroke fill markers"
       aria-label="h"
       sodipodi:nodetypes="cccsccsccscccccc"
       inkscape:label="d" />
    <path
       d="m 1.5874999,3.7041667 h 0.2645834 v 0.1637256 c 0.095756,-0.1134188 0.1018859,-0.1637256 0.396875,-0.1637256 0.161817,0 0.279094,0.048321 0.3968749,0.1475884 0.086845,-0.1153963 0.2125532,-0.147588 0.3968751,-0.1475882 0.2027118,-2e-7 0.3968748,0.1484383 0.3968749,0.5291664 l 3e-7,0.7937502 -0.2645836,-2e-7 v -0.79375 c 0,-0.1222236 10e-8,-0.260549 -0.2576753,-0.2645833 -0.2506844,0 -0.2714914,0.1138601 -0.2714914,0.2645833 0,0.4215527 0,0.79375 0,0.79375 H 2.3812499 v -0.79375 c 0.00419,-0.045958 0,-0.2645833 -0.2645833,-0.2645833 -0.2645833,0 -0.2645833,0.1394455 -0.2645833,0.2645833 v 0.79375 H 1.5874999 Z"
       id="text5"
       style="font-weight:bold;font-size:4.5861px;font-family:Arial;-inkscape-font-specification:'Arial Bold';display:none;fill:#0055d4;fill-rule:evenodd;stroke-width:0.0700483;stroke-linecap:round;paint-order:stroke fill markers"
       aria-label="m"
       inkscape:label="m"
       sodipodi:nodetypes="ccccccsccsccccsssccc" />
    <path
       d="M 2.0667223,5.2916667 H 1.5874999 V 3.4805131 H 2.032614 v 0.257518 q 0.1142629,-0.1824796 0.2046501,-0.2404638 0.092092,-0.057984 0.208061,-0.057984 0.16372,0 0.3155022,0.090387 L 2.612456,3.9477976 q -0.1210846,-0.078449 -0.2251151,-0.078449 -0.1006197,0 -0.1705418,0.056279 -0.069923,0.054574 -0.1108522,0.1995339 -0.039224,0.1449604 -0.039224,0.6071286 z"
       id="text6"
       style="font-weight:bold;font-size:4.5861px;font-family:Arial;-inkscape-font-specification:'Arial Bold';fill:#0055d4;fill-rule:evenodd;stroke-width:0.100751;stroke-linecap:round;paint-order:stroke fill markers"
       aria-label="r"
       inkscape:label="r" />
  </g>
  <metadata
     id="metadata1">
    <rdf:RDF>
      <cc:Work
         rdf:about="">
        <cc:license
           rdf:resource="http://artlibre.org/licence/lal" />
      </cc:Work>
      <cc:License
         rdf:about="http://artlibre.org/licence/lal">
        <cc:permits
           rdf:resource="http://creativecommons.org/ns#Reproduction" />
        <cc:permits
           rdf:resource="http://creativecommons.org/ns#Distribution" />
        <cc:permits
           rdf:resource="http://creativecommons.org/ns#DerivativeWorks" />
        <cc:requires
           rdf:resource="http://creativecommons.org/ns#ShareAlike" />
        <cc:requires
           rdf:resource="http://creativecommons.org/ns#Notice" />
        <cc:requires
           rdf:resource="http://creativecommons.org/ns#Attribution" />
      </cc:License>
    </rdf:RDF>
  </metadata>
</svg>
